<svg xmlns="http://www.w3.org/2000/svg" viewBox="0 0 221.39816772783468 60"
     class="font">
    <defs>
        <linearGradient gradientTransform="rotate(25)" id="e1bf97b8-ad0b-4fa4-9824-9eba2aa48f25"
                        x1="0%" y1="0%" x2="100%" y2="0%">
            <stop offset="0%" style="stop-color: rgb(233, 13, 218); stop-opacity: 1;"></stop>
            <stop offset="100%" style="stop-color: rgb(21, 207, 241); stop-opacity: 1;"></stop>
        </linearGradient>
    </defs>
    <g fill="url(#e1bf97b8-ad0b-4fa4-9824-9eba2aa48f25)"
       transform="matrix(6.079027426108357,0,0,6.079027426108357,-6.869300663720622,-24.62006271205847)">
        <path d="M1.13 4.05L1.13 13.73L7.52 13.73L7.52 12.40L2.56 12.40L2.56 4.05ZM8.57 6.33L8.57 11.21C8.57 13.08 9.60 13.92 11.10 13.92C12.10 13.92 12.88 13.54 13.44 12.81L13.44 13.73L14.70 13.73L14.70 6.33L13.37 6.33L13.37 11.34C12.95 12.33 12.31 12.66 11.52 12.66C10.58 12.66 9.90 12.17 9.90 10.99L9.90 6.33ZM16.83 6.33L16.83 13.73L18.16 13.73L18.16 8.71C18.56 7.73 19.22 7.41 20.01 7.41C20.99 7.41 21.63 7.90 21.63 9.18L21.63 13.73L22.96 13.73L22.96 9.04C22.96 6.97 21.92 6.15 20.43 6.15C19.42 6.15 18.63 6.52 18.09 7.24L18.09 6.33ZM25.80 7.99C26.35 7.62 26.98 7.41 27.76 7.41C28.83 7.41 29.48 7.80 29.48 9.11L29.48 9.37C28.90 9.11 28.20 8.97 27.54 8.97C25.90 8.97 24.71 9.83 24.71 11.45C24.71 13.08 25.89 13.83 27.37 13.83C28.18 13.83 28.94 13.61 29.55 13.20L29.55 13.73L30.79 13.73L30.79 9.03C30.79 6.85 29.60 6.15 27.92 6.15C26.68 6.15 25.82 6.52 25.27 6.93ZM27.66 12.73C26.73 12.73 25.97 12.33 25.97 11.38C25.97 10.39 26.80 9.95 27.86 9.95C28.38 9.95 28.98 10.05 29.48 10.23L29.48 12.29C28.94 12.57 28.25 12.73 27.66 12.73ZM37.55 6.59C37.30 6.36 36.90 6.15 36.25 6.15C35.35 6.15 34.64 6.52 34.12 7.22L34.12 6.33L32.86 6.33L32.86 13.73L34.19 13.73L34.19 8.74C34.61 7.70 35.24 7.41 35.99 7.41C36.44 7.41 36.79 7.50 37.06 7.77Z"></path>
    </g>
</svg>