<svg xmlns="http://www.w3.org/2000/svg" viewBox="0 0 249.93629010165031 178"
     class="iconAbove">
    <g id="fec4f00c-0875-4dba-8da8-c0d256285c7a" fill="#000000"
       transform="matrix(6.369426700005446,0,0,6.369426700005446,-11.97452101151518,88.17076994389492)">
        <path d="M1.88 13.78L7.57 13.78L7.57 12.78L3.02 12.78L3.02 4.54L1.88 4.54ZM11.84 13.96C12.89 13.96 13.69 13.36 14.38 12.52L14.43 12.52L14.53 13.78L15.47 13.78L15.47 6.64L14.32 6.64L14.32 11.61C13.57 12.54 12.99 12.96 12.21 12.96C11.07 12.96 10.64 12.31 10.64 10.92L10.64 6.64L9.48 6.64L9.48 11.07C9.48 12.96 10.22 13.96 11.84 13.96ZM18.10 13.78L19.25 13.78L19.25 8.79C20.05 7.90 20.59 7.46 21.41 7.46C22.53 7.46 22.97 8.12 22.97 9.49L22.97 13.78L24.12 13.78L24.12 9.34C24.12 7.46 23.38 6.47 21.77 6.47C20.71 6.47 19.92 7.07 19.21 7.88L19.15 7.88L19.05 6.64L18.10 6.64ZM28.64 13.96C29.61 13.96 30.58 13.41 31.33 12.80L31.37 12.80L31.47 13.78L32.41 13.78L32.41 9.38C32.41 7.63 31.51 6.47 29.65 6.47C28.46 6.47 27.45 7.03 26.91 7.49L27.36 8.29C27.85 7.87 28.57 7.42 29.46 7.42C30.77 7.42 31.23 8.27 31.26 9.25C27.75 9.56 26.33 10.33 26.33 11.94C26.33 13.22 27.37 13.96 28.64 13.96ZM28.95 13.03C28.17 13.03 27.45 12.68 27.45 11.86C27.45 10.89 28.35 10.28 31.26 10.02L31.26 11.94C30.49 12.64 29.72 13.03 28.95 13.03ZM35.64 13.78L36.79 13.78L36.79 9.56C37.60 8.06 38.57 7.50 39.59 7.50C40.12 7.50 40.38 7.57 40.85 7.76L41.12 6.76C40.70 6.54 40.28 6.47 39.77 6.47C38.51 6.47 37.45 7.20 36.74 8.34L36.69 8.34L36.60 6.64L35.64 6.64Z"/>
    </g>
    <defs>
        <linearGradient gradientTransform="rotate(25)" id="55626190-e46e-4256-ab10-ac0e97205a16"
                        x1="0%" y1="0%" x2="100%" y2="0%">
            <stop offset="0%" style="stop-color: rgb(0, 118, 221); stop-opacity: 1;"/>
            <stop offset="100%" style="stop-color: rgb(0, 205, 233); stop-opacity: 1;"/>
        </linearGradient>
    </defs>
    <g id="93261da8-b1d7-4abb-9b26-c2ea78707a1a"
       transform="matrix(1.0754222446017796,0,0,1.0754222446017796,71.85094175753667,-1.1427885761563772)" stroke="none"
       fill="url(#55626190-e46e-4256-ab10-ac0e97205a16)">
        <path d="M98.175 71.521a51.404 51.404 0 0 1-25.059 6.488c-28.519 0-51.639-23.121-51.639-51.639a51.376 51.376 0 0 1 6.489-25.06c-15.851 8.815-26.58 25.726-26.58 45.15 0 28.517 23.12 51.638 51.639 51.638 19.424.002 36.334-10.729 45.15-26.577zM82.348 12l4.217 8.548L96 21.919l-6.825 6.654 1.61 9.397-8.437-4.436-8.439 4.436 1.612-9.397-6.827-6.654 9.435-1.371z"/>
        <path d="M57.109 38.922l2.269 4.598 5.074.736-3.671 3.58.867 5.055-4.539-2.388-4.539 2.388.867-5.055-3.671-3.58 5.075-.736zM51.259 3l2.924 5.925 6.539.95-4.731 4.613L57.107 21l-5.848-3.075L45.41 21l1.117-6.512-4.731-4.613 6.539-.95z"/>
    </g>
</svg>